<svg xmlns="http://www.w3.org/2000/svg" xmlns:xlink="http://www.w3.org/1999/xlink" width="1080" zoomAndPan="magnify" viewBox="0 0 810 809.999993" height="1080" preserveAspectRatio="xMidYMid meet" version="1.0"><defs><clipPath id="6299c03229"><path d="M 658.398438 427.660156 L 675 427.660156 L 675 498.160156 L 658.398438 498.160156 Z M 658.398438 427.660156 " clip-rule="nonzero"/></clipPath><clipPath id="29e5a9033a"><path d="M 665 427.660156 L 728.898438 427.660156 L 728.898438 498.160156 L 665 498.160156 Z M 665 427.660156 " clip-rule="nonzero"/></clipPath><clipPath id="9df0782abd"><path d="M 82 311.101562 L 167 311.101562 L 167 377 L 82 377 Z M 82 311.101562 " clip-rule="nonzero"/></clipPath><clipPath id="16bf06d7ce"><path d="M 81.046875 311.101562 L 168 311.101562 L 168 377.101562 L 81.046875 377.101562 Z M 81.046875 311.101562 " clip-rule="nonzero"/></clipPath><clipPath id="b742e4e466"><path d="M 117 311.101562 L 132 311.101562 L 132 370 L 117 370 Z M 117 311.101562 " clip-rule="nonzero"/></clipPath><clipPath id="132ef3ebae"><path d="M 116 311.101562 L 133 311.101562 L 133 371 L 116 371 Z M 116 311.101562 " clip-rule="nonzero"/></clipPath><clipPath id="c68aa96e64"><path d="M 98 404.015625 L 729 404.015625 L 729 410.765625 L 98 410.765625 Z M 98 404.015625 " clip-rule="nonzero"/></clipPath><clipPath id="b592a91638"><path d="M 473.457031 427.765625 L 525.203125 427.765625 L 525.203125 583.558594 L 473.457031 583.558594 Z M 473.457031 427.765625 " clip-rule="nonzero"/></clipPath></defs><rect x="-81" width="972" fill="#ffffff" y="-80.999999" height="971.999992" fill-opacity="1"/><rect x="-81" width="972" fill="#ffffff" y="-80.999999" height="971.999992" fill-opacity="1"/><path fill="#100f0d" d="M 673.761719 497.261719 L 659.300781 497.261719 L 659.300781 428.628906 L 673.761719 428.628906 L 673.761719 497.261719 " fill-opacity="1" fill-rule="nonzero"/><g clip-path="url(#6299c03229)"><path fill="#100f0d" d="M 660.203125 496.359375 L 672.859375 496.359375 L 672.859375 429.535156 L 660.203125 429.535156 Z M 674.667969 498.167969 L 658.398438 498.167969 L 658.398438 427.726562 L 674.667969 427.726562 L 674.667969 498.167969 " fill-opacity="1" fill-rule="nonzero"/></g><path fill="#100f0d" d="M 727.996094 497.261719 L 713.535156 497.261719 L 713.535156 462.976562 C 713.535156 452.011719 704.609375 443.089844 693.648438 443.089844 L 666.53125 443.089844 L 666.53125 428.628906 L 693.648438 428.628906 C 712.585938 428.628906 727.996094 444.039062 727.996094 462.976562 L 727.996094 497.261719 " fill-opacity="1" fill-rule="nonzero"/><g clip-path="url(#29e5a9033a)"><path fill="#100f0d" d="M 714.4375 496.359375 L 727.089844 496.359375 L 727.089844 462.976562 C 727.089844 444.535156 712.085938 429.535156 693.648438 429.535156 L 667.4375 429.535156 L 667.4375 442.1875 L 693.648438 442.1875 C 705.109375 442.1875 714.4375 451.511719 714.4375 462.976562 Z M 728.898438 498.167969 L 712.628906 498.167969 L 712.628906 462.976562 C 712.628906 452.507812 704.117188 443.996094 693.648438 443.996094 L 665.628906 443.996094 L 665.628906 427.726562 L 693.648438 427.726562 C 713.085938 427.726562 728.898438 443.539062 728.898438 462.976562 L 728.898438 498.167969 " fill-opacity="1" fill-rule="nonzero"/></g><g clip-path="url(#9df0782abd)"><path fill="#295779" d="M 82.078125 311.792969 L 95.664062 311.792969 L 95.664062 343.996094 C 95.664062 354.292969 104.039062 362.671875 114.335938 362.671875 L 153.382812 362.671875 L 153.382812 311.792969 L 166.96875 311.792969 L 166.96875 376.253906 L 114.335938 376.253906 C 96.550781 376.253906 82.078125 361.785156 82.078125 343.996094 L 82.078125 311.792969 " fill-opacity="1" fill-rule="nonzero"/></g><g clip-path="url(#16bf06d7ce)"><path fill="#295779" d="M 94.8125 312.644531 L 82.929688 312.644531 L 82.929688 343.996094 C 82.929688 361.316406 97.019531 375.40625 114.335938 375.40625 L 166.117188 375.40625 L 166.117188 312.644531 L 154.234375 312.644531 L 154.234375 363.519531 L 114.335938 363.519531 C 103.570312 363.519531 94.8125 354.761719 94.8125 343.996094 Z M 81.230469 310.945312 L 96.511719 310.945312 L 96.511719 343.996094 C 96.511719 353.824219 104.507812 361.820312 114.335938 361.820312 L 152.535156 361.820312 L 152.535156 310.945312 L 167.816406 310.945312 L 167.816406 377.101562 L 114.335938 377.101562 C 96.082031 377.101562 81.230469 362.25 81.230469 343.996094 L 81.230469 310.945312 " fill-opacity="1" fill-rule="nonzero"/></g><g clip-path="url(#b742e4e466)"><path fill="#295779" d="M 117.730469 311.792969 L 131.316406 311.792969 L 131.316406 369.460938 L 117.730469 369.460938 L 117.730469 311.792969 " fill-opacity="1" fill-rule="nonzero"/></g><g clip-path="url(#132ef3ebae)"><path fill="#295779" d="M 130.464844 312.644531 L 118.582031 312.644531 L 118.582031 368.613281 L 130.464844 368.613281 Z M 116.882812 310.945312 L 132.164062 310.945312 L 132.164062 370.3125 L 116.882812 370.3125 L 116.882812 310.945312 " fill-opacity="1" fill-rule="nonzero"/></g><g clip-path="url(#c68aa96e64)"><path fill="#000000" d="M 728.800781 410.714844 L 98.449219 410.714844 L 98.449219 403.996094 L 728.800781 403.996094 L 728.800781 410.714844 " fill-opacity="1" fill-rule="nonzero"/></g><g clip-path="url(#b592a91638)"><path fill="#181919" d="M 491.261719 452.621094 L 473.515625 551.359375 C 473.289062 552.933594 473.722656 554.535156 474.714844 555.78125 L 495.265625 581.605469 C 497.339844 584.210938 501.320312 584.210938 503.394531 581.605469 L 523.945312 555.78125 C 524.9375 554.535156 525.371094 552.933594 525.144531 551.359375 L 507.394531 452.601562 C 507.371094 452.363281 507.394531 452.125 507.457031 451.902344 L 520.460938 429.597656 C 520.828125 428.726562 520.1875 427.765625 519.238281 427.765625 L 478.679688 427.765625 C 477.714844 427.765625 477.074219 428.753906 477.46875 429.628906 L 491.191406 451.890625 C 491.261719 452.117188 491.289062 452.371094 491.261719 452.621094 " fill-opacity="1" fill-rule="nonzero"/></g><path stroke-linecap="butt" transform="matrix(0.971454, 0, 0, 0.971454, 175.967469, 394.896886)" fill="none" stroke-linejoin="miter" d="M 159.061359 36.572901 L 148.755449 36.572901 C 146.901752 36.572901 145.759778 37.180077 145.759778 39.592698 L 145.759778 63.079557 L 122.55037 63.079557 L 122.55037 39.592698 C 122.55037 37.180077 121.508923 36.572901 119.530574 36.572901 L 109.244769 36.572901 C 107.366946 36.572901 106.224973 37.180077 106.224973 39.592698 L 106.224973 101.97904 C 106.224973 104.363513 107.366946 104.998836 109.244769 104.998836 L 119.530574 104.998836 C 121.508923 104.998836 122.55037 104.363513 122.55037 101.97904 L 122.55037 78.49218 L 145.759778 78.49218 L 145.759778 101.97904 C 145.759778 104.363513 146.901752 104.998836 148.755449 104.998836 L 159.061359 104.998836 C 160.943203 104.998836 162.085176 104.363513 162.085176 101.97904 L 162.085176 39.592698 C 162.085176 37.180077 160.943203 36.572901 159.061359 36.572901 Z M 231.242939 83.064096 L 231.242939 58.511662 C 231.242939 42.081718 215.625243 34.996656 203.260564 34.996656 C 190.871758 34.996656 175.483261 42.081718 175.483261 58.511662 L 175.483261 83.064096 C 175.483261 99.49002 190.871758 106.546934 203.260564 106.546934 C 215.625243 106.546934 231.242939 99.49002 231.242939 83.064096 Z M 214.917541 59.955214 L 214.917541 81.588376 C 214.917541 88.267314 210.116427 92.10338 203.260564 92.10338 C 196.509248 92.10338 191.708133 88.267314 191.708133 81.588376 L 191.708133 59.955214 C 191.708133 53.304423 196.509248 49.472378 203.260564 49.472378 C 210.116427 49.472378 214.917541 53.304423 214.917541 59.955214 Z M 300.605775 101.673441 L 285.933022 80.345877 C 292.37874 78.162455 300.404723 70.570743 300.404723 59.653636 C 300.404723 52.998825 298.221302 47.083884 294.361109 43.324217 C 289.994266 38.957374 284.9921 36.673427 273.668869 36.673427 L 247.46379 36.673427 C 245.079317 36.673427 244.54452 37.815401 244.54452 39.697245 L 244.54452 101.97904 C 244.54452 104.363513 245.585967 104.998836 247.46379 104.998836 L 257.749595 104.998836 C 259.627418 104.998836 260.769392 104.363513 260.769392 101.97904 L 260.769392 51.221528 L 274.60577 51.221528 C 280.01406 51.221528 284.179851 54.675596 284.179851 60.083887 C 284.179851 64.95738 279.378737 68.487848 274.304192 68.487848 L 272.221296 68.487848 C 269.808676 68.487848 269.197479 69.629821 269.197479 71.511665 L 269.197479 79.839227 C 269.197479 82.734371 269.402552 83.900471 270.343474 85.14297 L 281.566179 101.878514 C 283.037878 104.061935 284.280377 104.998836 286.769397 104.998836 L 299.033551 104.998836 C 301.0119 104.998836 301.546697 103.121013 300.605775 101.673441 Z M 300.605775 101.673441 " stroke="#000000" stroke-width="3.9" stroke-opacity="1" stroke-miterlimit="4"/><path stroke-linecap="butt" transform="matrix(0.971454, 0, 0, 0.971454, 175.967469, 394.896886)" fill="none" stroke-linejoin="miter" d="M 414.702614 90.450735 L 385.807464 90.450735 L 413.661166 51.756325 C 414.702614 50.409279 415.008212 49.038106 415.008212 47.695081 L 415.008212 39.592698 C 415.008212 37.714875 414.397015 36.572901 412.012542 36.572901 L 370.193789 36.572901 C 367.805295 36.572901 367.169971 37.714875 367.169971 39.592698 L 367.169971 48.101206 C 367.169971 49.979028 367.805295 51.121002 370.193789 51.121002 L 395.687144 51.121002 L 367.604243 89.919959 C 367.604243 89.919959 366.23307 91.492183 366.23307 93.880677 L 366.23307 101.97904 C 366.23307 104.492186 366.663321 104.998836 369.357414 104.998836 L 414.702614 104.998836 C 417.091108 104.998836 417.726431 103.856862 417.726431 101.97904 L 417.726431 93.446405 C 417.726431 91.592709 417.091108 90.450735 414.702614 90.450735 Z M 482.93956 83.064096 L 482.93956 58.511662 C 482.93956 42.081718 467.321864 34.996656 454.957185 34.996656 C 442.568379 34.996656 427.179882 42.081718 427.179882 58.511662 L 427.179882 83.064096 C 427.179882 99.49002 442.568379 106.546934 454.957185 106.546934 C 467.321864 106.546934 482.93956 99.49002 482.93956 83.064096 Z M 466.614162 59.955214 L 466.614162 81.588376 C 466.614162 88.267314 461.813047 92.10338 454.957185 92.10338 C 448.205869 92.10338 443.404754 88.267314 443.404754 81.588376 L 443.404754 59.955214 C 443.404754 53.304423 448.205869 49.472378 454.957185 49.472378 C 461.813047 49.472378 466.614162 53.304423 466.614162 59.955214 Z M 466.614162 59.955214 " stroke="#000000" stroke-width="3.9" stroke-opacity="1" stroke-miterlimit="4"/><path stroke-linecap="butt" transform="matrix(0.75, 0, 0, 0.75, 175.967469, 274.100046)" fill="none" stroke-linejoin="miter" d="M 79.590254 107.595777 L 79.590254 75.804109 C 79.590254 54.533274 59.371503 45.361399 43.361085 45.361399 C 27.319418 45.361399 7.397542 54.533274 7.397542 75.804109 L 7.397542 107.595777 C 7.397542 128.866612 27.319418 138.007237 43.361085 138.007237 C 59.371503 138.007237 79.590254 128.866612 79.590254 107.595777 Z M 58.454836 77.679109 L 58.454836 105.689527 C 58.454836 114.335361 52.241294 119.298903 43.361085 119.298903 C 34.616293 119.298903 28.402751 114.335361 28.402751 105.689527 L 28.402751 77.679109 C 28.402751 69.064525 34.616293 64.100983 43.361085 64.100983 C 52.241294 64.100983 58.454836 69.064525 58.454836 77.679109 Z M 169.402758 131.694737 L 150.402757 104.074944 C 158.751716 101.252027 169.142341 91.418693 169.142341 77.283276 C 169.142341 68.668692 166.314216 61.012441 161.319424 56.14265 C 155.663174 50.491608 149.184007 47.533274 134.522548 47.533274 L 100.595463 47.533274 C 97.506921 47.533274 96.814213 49.012441 96.814213 51.444733 L 96.814213 132.085362 C 96.814213 135.179112 98.163171 136.002029 100.595463 136.002029 L 113.907964 136.002029 C 116.345464 136.002029 117.824631 135.179112 117.824631 132.085362 L 117.824631 66.366608 L 135.741298 66.366608 C 142.741298 66.366608 148.131924 70.840567 148.131924 77.840567 C 148.131924 84.153068 141.918382 88.725985 135.345465 88.725985 L 132.647548 88.725985 C 129.527756 88.725985 128.736089 90.205151 128.736089 92.637443 L 128.736089 103.418694 C 128.736089 107.168694 129.001714 108.679111 130.215256 110.288486 L 144.746507 131.955153 C 146.652757 134.783279 148.26734 136.002029 151.486091 136.002029 L 167.3663 136.002029 C 169.9288 136.002029 170.621508 133.569737 169.402758 131.694737 Z M 260.303804 47.397857 L 242.121512 47.397857 C 239.03297 47.397857 238.079845 47.663482 235.381928 50.621816 L 207.501718 81.324942 L 207.501718 51.309316 C 207.501718 48.189524 206.022552 47.397857 203.720468 47.397857 L 190.407968 47.397857 C 187.845467 47.397857 186.496509 48.189524 186.496509 51.309316 L 186.496509 132.085362 C 186.496509 135.179112 187.845467 136.002029 190.407968 136.002029 L 203.720468 136.002029 C 206.022552 136.002029 207.501718 135.179112 207.501718 132.085362 L 207.501718 108.121819 L 215.855885 99.377027 C 223.121511 111.507236 235.121511 131.694737 235.121511 131.694737 C 236.861095 134.522862 238.605887 136.002029 241.861095 136.002029 L 258.262138 136.002029 C 260.829846 136.002029 261.355888 133.43432 260.303804 131.694737 L 231.340261 84.022859 L 261.652763 51.179108 C 262.866304 49.965566 262.866304 47.397857 260.303804 47.397857 Z M 260.303804 47.397857 " stroke="#295779" stroke-width="5.050013" stroke-opacity="1" stroke-miterlimit="4"/></svg>